<svg id="Capa_1" enable-background="new 0 0 512 512" height="512" viewBox="0 0 512 512" width="512" xmlns="http://www.w3.org/2000/svg"><g><g><path d="m304.08 420.713 12.518-20.087c1.715-2.752 5.241-3.75 8.143-2.304l22.129 11.021c4.816 2.398 10.225-1.963 8.902-7.177l-42.435-167.342-62.87 17.787 42.176 166.321c1.363 5.373 8.505 6.485 11.437 1.781z" fill="#ff8086"/><g><path d="m355.771 402.166-42.435-167.343-30.94 8.754 39.078 154.106c1.094-.081 2.22.118 3.266.639l22.129 11.021c4.816 2.398 10.225-1.963 8.902-7.177z" fill="#e5646e"/></g><path d="m216.607 148.635h78.786v103.973h-78.786z" fill="#db4655"/><path d="m262.233 148.635h33.16v103.973h-33.16z" fill="#bd4150"/><path d="m52.026 252.608h-37.163c-4.066 0-7.363-3.296-7.363-7.363v-117.762c0-4.066 3.296-7.363 7.363-7.363h37.163z" fill="#db4655"/><path d="m26.866 120.121h25.16v132.488h-25.16z" fill="#bd4150"/><path d="m196.854 420.713-12.518-20.087c-1.715-2.752-5.241-3.75-8.143-2.304l-22.129 11.021c-4.816 2.398-10.225-1.963-8.902-7.177l42.435-167.342 62.87 17.787-42.176 166.321c-1.363 5.373-8.505 6.485-11.437 1.781z" fill="#ff8086"/><g><path d="m187.597 234.823-2.22 8.754 31.929 9.034-36.829 145.234c1.551.376 2.956 1.333 3.859 2.781l12.518 20.087c2.932 4.705 10.074 3.592 11.437-1.781l42.176-166.322z" fill="#e5646e"/></g><path d="m216.61 148.637v103.97l-164.58 31.61v-184.61c0-6.13 4.97-11.1 11.1-11.1h49.14c2.59 0 5.13.71 7.35 2.04l63.83 38.23z" fill="#ff8086"/><path d="m216.61 148.637v103.97h-33.16v-123.831z" fill="#e5646e"/><path d="m52.026 284.218 49.297 37.411c7.046 5.347 16.788 5.359 23.847.028l91.437-69.05z" fill="#978ecb"/><path d="m172.137 261.149-75.44 56.969 4.626 3.511c7.046 5.347 16.788 5.359 23.847.028l91.437-69.05z" fill="#8379c1"/><path d="m459.974 252.608h37.163c4.066 0 7.363-3.296 7.363-7.363v-117.762c0-4.066-3.296-7.363-7.363-7.363h-37.163z" fill="#db4655"/><path d="m497.137 120.121h-25.16c4.066 0 7.363 3.296 7.363 7.363v117.762c0 4.066-3.296 7.363-7.363 7.363h25.16c4.066 0 7.363-3.296 7.363-7.363v-117.763c0-4.066-3.296-7.362-7.363-7.362z" fill="#bd4150"/><path d="m459.974 284.218-164.581-31.61v-103.973l96.987-58.092c2.22-1.33 4.76-2.032 7.348-2.032h49.146c6.131 0 11.1 4.97 11.1 11.1z" fill="#ff8086"/><path d="m448.874 88.511h-33.16c6.13 0 11.1 4.97 11.1 11.1v178.238l33.16 6.369v-184.607c0-6.13-4.97-11.1-11.1-11.1z" fill="#e5646e"/><path d="m459.974 284.218-49.297 37.411c-7.046 5.347-16.788 5.359-23.847.028l-91.437-69.05z" fill="#978ecb"/><path d="m295.393 252.608 11.31 8.541 120.111 23.069-44.671 33.9 4.687 3.539c7.059 5.331 16.801 5.319 23.847-.028l49.298-37.411z" fill="#8379c1"/></g><path d="m497.138 112.621h-29.664v-13.01c0-10.256-8.344-18.6-18.6-18.6h-49.146c-3.944 0-7.818 1.071-11.202 3.098l-64.473 38.617c-3.554 2.129-4.709 6.735-2.581 10.288 2.13 3.554 6.737 4.709 10.288 2.581l64.473-38.617c1.056-.633 2.265-.967 3.495-.967h49.146c1.984 0 3.6 1.615 3.6 3.6v175.53l-149.581-28.729v-53.717l76.052-12.967c4.083-.696 6.829-4.571 6.133-8.654-.696-4.082-4.562-6.825-8.654-6.133l-73.53 12.538v-28.842c0-4.143-3.357-7.5-7.5-7.5h-76.71l-95.208-57.026c-3.384-2.026-7.258-3.098-11.202-3.098h-49.148c-10.256 0-18.6 8.344-18.6 18.6v13.01h-29.664c-8.195-.002-14.862 6.665-14.862 14.86v117.763c0 8.195 6.667 14.862 14.862 14.862h29.664v24.11c.076 1.916.697 4.233 2.966 5.975l49.297 37.411c4.848 3.679 10.662 5.52 16.477 5.52 5.793 0 11.587-1.827 16.424-5.48l89.432-67.535h21.709l-39.114 154.236-11.018-17.694c-3.787-6.056-11.463-8.223-17.852-5.037l-19.771 9.844 19.046-75.099c1.019-4.015-1.411-8.096-5.426-9.113-4.017-1.022-8.095 1.41-9.113 5.426l-19.694 77.653c-1.339 5.284.467 10.694 4.711 14.119 4.246 3.425 9.915 4.046 14.802 1.617l21.154-10.533 11.935 19.167c5.311 9.261 21.956 8.345 25.068-3.913l34.909-137.66 34.903 137.671c2.355 10.364 18.222 14.747 25.073 3.892l11.936-19.153 21.151 10.532c4.88 2.427 10.551 1.808 14.797-1.619 4.244-3.425 6.05-8.835 4.71-14.119l-27.354-107.89 46.625 35.209c4.839 3.654 10.632 5.481 16.425 5.481 5.814 0 11.629-1.841 16.477-5.52l49.297-37.411c1.458-1.16 2.962-3.168 2.966-5.975v-24.11h29.664c8.195 0 14.862-6.667 14.862-14.862v-117.765c0-8.195-6.667-14.862-14.862-14.862zm-437.612-13.01c0-1.984 1.615-3.6 3.6-3.6h49.146c1.23 0 2.439.334 3.495.967l93.341 55.907v24.592l-73.53-12.538c-4.079-.692-7.957 2.05-8.654 6.133-.696 4.083 2.05 7.958 6.133 8.654l76.052 12.967v53.717l-149.583 28.731zm-44.526 145.497v-117.487h29.526v117.487zm105.649 70.564c-4.357 3.294-10.439 3.285-14.792-.018l-35.899-27.243 116.396-22.356zm103.458-159.537h63.785v88.973h-63.785zm123.746 245.322-19.758-9.838c-6.404-3.203-14.084-1.033-17.86 5.041l-11.021 17.687-39.105-154.238h32.771l23.668 17.874zm58.29-85.802c-4.351 3.302-10.433 3.312-14.793.018l-65.704-49.617 116.396 22.356zm90.857-70.547h-29.526v-117.487h29.526z"/></g></svg>